<?xml version="1.0" encoding="utf-8"?>
<!-- Generator: Adobe Illustrator 16.0.0, SVG Export Plug-In . SVG Version: 6.00 Build 0)  -->
<!DOCTYPE svg PUBLIC "-//W3C//DTD SVG 1.1//EN" "http://www.w3.org/Graphics/SVG/1.1/DTD/svg11.dtd">
<svg version="1.1" id="Layer_1" xmlns="http://www.w3.org/2000/svg" xmlns:xlink="http://www.w3.org/1999/xlink" x="0px" y="0px"
	 width="340px" height="366.5px" viewBox="73.5 0 340 366.5" enable-background="new 73.5 0 340 366.5" xml:space="preserve">
<path fill="none" stroke="#000000" stroke-miterlimit="10" d="M137.6,39.2h-24.8c-6.8,0-12.4,5.6-12.4,12.4v289.2
	c0,6.8,5.6,12.4,12.4,12.4h24.8c6.8,0,12.4-5.601,12.4-12.4V51.6C150,44.8,144.4,39.2,137.6,39.2z M108,109.6h34v173.6h-34V109.6z
	 M142,101.6h-34V84h34V101.6z M108,291.2h34v17.6h-34V291.2z M112.4,47.2h24.8c2.4,0,4.4,2,4.4,4.4V76h-34V51.6
	C108,49.2,110,47.2,112.4,47.2z M137.6,345.2h-24.8c-2.4,0-4.4-2-4.4-4.4v-24H142v24C142,343.2,140,345.2,137.6,345.2z"/>
<path fill="none" stroke="#000000" stroke-miterlimit="10" d="M369.2,226.8H329.6c-2.399,0-4,1.6-4,4c0,2.4,1.601,4,4,4H369.2
	c2.399,0,4-1.6,4-4C373.2,228.4,371.6,226.8,369.2,226.8z"/>
<path fill="none" stroke="#000000" stroke-miterlimit="10" d="M388,39.2h-76.8c-6.8,0-12.4,5.6-12.4,12.4v289.2
	c0,6.8,5.601,12.4,12.4,12.4H388c6.8,0,12.4-5.601,12.4-12.4V51.6C400.4,44.8,394.8,39.2,388,39.2z M306.4,109.6h86v173.6h-86V109.6
	z M392.4,101.6h-86V84h86V101.6z M306.4,291.2h86v17.6h-86V291.2z M311.2,47.2H388c2.4,0,4.4,2,4.4,4.4V76h-86V51.6
	C306.4,49.2,308.4,47.2,311.2,47.2z M388,345.2h-76.8c-2.4,0-4.4-2-4.4-4.4v-24h86v24C392.4,343.2,390.4,345.2,388,345.2z"/>
<path fill="none" stroke="#000000" stroke-miterlimit="10" d="M180.4,146.4c-2.4,0-4,1.6-4,4V242c0,2.4,1.6,4,4,4s4-1.6,4-4v-91.6
	C184.4,148,182.8,146.4,180.4,146.4z"/>
<path fill="none" stroke="#000000" stroke-miterlimit="10" d="M249.6,49.2c-0.4-3.2-2-6.4-4.8-8.4c-2.8-2-6-2.8-9.2-2.4L210.8,42
	c-2.8,0.4-5.2,1.6-7.2,3.6c-2-4-6.4-6.8-10.8-6.8H168c-6.8,0-12.4,5.6-12.4,12.4v289.2c0,6.8,5.6,12.399,12.4,12.399h24.8
	c6.8,0,12.4-5.6,12.4-12.399V91.2l35.6,251.2c0.4,3.199,2,6.399,4.8,8.399c2,1.601,4.8,2.4,7.6,2.4c0.399,0,1.2,0,1.6,0l24.8-3.601
	c3.2-0.399,6.4-2,8.4-4.8s2.8-6,2.4-9.2L249.6,49.2z M212.8,87.2l33.6-4.8l2.4,17.2l-33.6,4.8L212.8,87.2z M250,107.6l24.4,171.6
	L240.8,284l-24.4-171.6L250,107.6z M242,292.4l33.6-4.801l2.4,17.2l-33.6,4.8L242,292.4z M212,50l24.8-3.6c0.4,0,0.4,0,0.8,0
	c2,0,4,1.6,4.4,4l3.6,24.4L212,79.6l-3.6-24.4C208,52.8,209.6,50.4,212,50z M163.6,109.6h34v173.6h-34V109.6z M197.6,101.6h-34V84
	h34V101.6z M163.6,291.2h34v17.6h-34V291.2z M168,47.2h24.8c2.4,0,4.4,2,4.4,4.4V76h-34V51.6C163.6,49.2,165.6,47.2,168,47.2z
	 M192.8,345.2H168c-2.4,0-4.4-2-4.4-4.4v-24h34v24C197.6,343.2,195.6,345.2,192.8,345.2z M278.8,341.6L254,345.2
	c-1.2,0-2.4,0-3.2-0.8c-0.8-0.801-1.6-1.601-1.6-2.801l-3.6-24l33.6-4.8l3.6,24C282.8,339.2,281.2,341.2,278.8,341.6z"/>
<path fill="none" stroke="#000000" stroke-miterlimit="10" d="M252,245.2h0.4c2-0.4,3.6-2.4,3.199-4.4L242.8,150
	c-0.4-2-2.4-3.6-4.4-3.2c-2,0.4-3.6,2.4-3.2,4.4L248,242C248.4,243.6,250,245.2,252,245.2z"/>
<path fill="none" stroke="#000000" stroke-miterlimit="10" d="M125.2,146.4c-2.4,0-4,1.6-4,4V242c0,2.4,1.6,4,4,4c2.4,0,4-1.6,4-4
	v-91.6C129.2,148,127.2,146.4,125.2,146.4z"/>
<path fill="none" stroke="#000000" stroke-miterlimit="10" d="M349.6,215.6c16,0,29.2-13.2,29.2-29.2s-13.2-29.2-29.2-29.2
	S320.4,170.4,320.4,186.4S333.6,215.6,349.6,215.6z M349.6,165.2c11.601,0,21.2,9.6,21.2,21.2s-9.6,21.2-21.2,21.2
	c-11.6,0-21.199-9.6-21.199-21.2S338,165.2,349.6,165.2z"/>
</svg>
