<?xml version="1.0" encoding="utf-8"?>
<!-- Generator: Adobe Illustrator 16.0.0, SVG Export Plug-In . SVG Version: 6.00 Build 0)  -->
<!DOCTYPE svg PUBLIC "-//W3C//DTD SVG 1.1//EN" "http://www.w3.org/Graphics/SVG/1.1/DTD/svg11.dtd">
<svg version="1.1" xmlns="http://www.w3.org/2000/svg" xmlns:xlink="http://www.w3.org/1999/xlink" x="0px" y="0px"
	 width="346.64px" height="500px" viewBox="76.68 -1.525 346.64 500" enable-background="new 76.68 -1.525 346.64 500"
	 xml:space="preserve">
<g id="Layer_1">
	<g>
		<path d="M357.04,132.635c0-3.975-3.125-8.14-6.945-9.25L143.275,63.43c-3.825-1.105-4.36-3.985-1.195-6.395l18.325-13.95
			c3.165-2.405,8.885-3.47,12.7-2.36l206.45,59.955c3.82,1.11,6.945,5.275,6.945,9.25v325.02c0,0-2.46,2.135-5.46,4.75
			l-18.535,16.095c-3,2.615-5.46,1.495-5.46-2.485V132.635H357.04z"/>
		<path d="M247.755,112.545l-144.01-41.75c-3.82-1.105-4.355-3.98-1.19-6.39l54.145-41.22c3.165-2.41,8.885-3.47,12.7-2.365
			L397.635,87.1c3.82,1.11,6.945,5.275,6.945,9.25V443.2c0,3.975,3.25,7.229,7.235,7.229h4.27c3.985,0,7.235-3.255,7.235-7.229
			V81.965c0-4.26-2.785-7.985-6.795-9.155L163.095-0.735c-2.84-0.79-2.84-0.79-2.84-0.79c-2.96,1.285-7.965,4.305-11.13,6.715
			L79.98,57.825c-3.3,2.485-3.3,3.16-3.3,3.16c0,3.975,0,10.49,0,14.47v341.53c0,3.979,3.13,8.14,6.955,9.25L332.01,498.2
			c3.82,1.109,6.955-1.24,6.955-5.22V146.22c0-3.98-3.135-8.14-6.955-9.245l-16.185-4.69"/>
	</g>
</g>
<g id="Layer_2">
	<g>
		<defs>
			<polygon id="SVGID_1_" points="135.5,69.5 350.5,130.5 350.5,323.5 173.5,257.159 			"/>
		</defs>
		<clipPath id="SVGID_2_">
			<use xlink:href="#SVGID_1_"  overflow="visible"/>
		</clipPath>
		<polygon clip-path="url(#SVGID_2_)" stroke="#FFFFFF" stroke-width="14" stroke-miterlimit="10" points="296.979,106.68 
			300.541,167.482 357.001,181.354 304.166,199.261 308.44,257.159 271.7,209.561 217.62,232.542 247.618,185.751 209.188,145.036 
			265.647,158.908 		"/>
	</g>
</g>
</svg>
